<?xml version="1.0" encoding="UTF-8"?>
<svg viewBox="0 0 1118 894" xmlns="http://www.w3.org/2000/svg">
 <g fill-rule="evenodd" stroke-width=".5">
  <path d="m0 447v-447h1118v894h-1118v-447zm732-292v-45l136.8 0.5q136.7 0.5 137 4 0.2 3.5 1.2 3.5h2.5q1.5 0 1.5 136.5v136.5h-45.5q-45.5 0-45.5-4.5t-2.5-4.5-2.5-27v-74l-1.5 0.2-1.5 0.3-0.2 0.3-0.3 0.2-0.3 0.2-0.2 0.3-0.2 0.3-0.3 0.2-0.3 0.2-0.2 0.3-0.2 0.3-0.3 0.2-0.3 0.2-0.2 0.3-0.2 0.3-0.3 0.2-0.3 0.2-0.2 0.3-0.2 0.3q-0.3 0.2-42.3 42.7t-40 45.5 7.3 13.5l5.2 10.5h0.2q0.3 0 0.6 0.5l0.2 0.5 0.2 1q0.3 1 2.8 7t6.5 18 7 28.5 3.5 37-2.5 40-8.5 36-12.5 30.5-14.5 25.5-20.2 25.3q-12.8 13.7-16.3 17.4-3.5 3.8-14.3 11.3-10.7 7.5-24 15.3-13.2 7.7-31.2 14.7t-37.5 11-40 4.5-39.5-2.5-35.5-8.5-29-11.5-26-15-25.5-19.3l-12-10.2-3 0.2-3 0.3h-1l-0.2-0.3-0.3-0.2-0.3 0.2q-0.2 0.3-13.7-0.2t-26.5-3-29.5-7.5-31.3-12.3q-14.7-7.2-21-10.4-6.2-3.3-18.4 9l-12.3 12.2-0.3 0.2-0.2 0.3-0.2 0.3-0.3 0.2-0.3 0.2-0.2 0.3-0.2 0.3-0.3 0.2-0.3 0.2-0.2 0.3-0.2 0.3-0.3 0.2-0.3 0.2-0.2 0.3-0.2 0.3-0.3 0.2-0.3 0.5-0.2 0.5 3 3.8q3 3.7 4 4 1 0.2 5 5 4 4.7 5 5 1 0.2 4 4 3 3.7 4 4 1 0.2 5.5 5.4 4.5 5.3 5.5 5.6 1 0.2 1 1.2t1 1 2 1.8q1 1.7 2 2 1 0.2 1 1.2t1 1 1 1 1 1 1.5 1.2q0.5 1.3 1.5 1.6 1 0.2 1.5 1.4 0.5 1.3 1.5 1.6 1 0.2 2 2 1 1.7 2 2 1 0.2 1 1.2t1.2 2q1.3 1-1.2 3.5t-2.8 4q-0.2 1.5 1 2 1.3 0.5 0 2.7-1.2 2.3-8.2 9.3t-7.5 7.3l-0.5 0.2v0.5l-22.5 22.5q-22.5 22.5-23.5 22.8l-1 0.2-0.2-1q-0.3-1-31.6-31.8l-31.2-30.7-0.2-0.3-0.3-0.2-0.3 0.2-0.2 0.3-31.2 31.3q-31.3 31.2-31.6 31.4l-0.2 0.3h-1l-0.2-0.3q-0.3-0.2-31.3-31.2t-30.3-32.8q0.8-1.7 2.3-4.4 1.5-2.8 0.5-3-1-0.3-1.2-1.6-0.3-1.2 7.4-9 7.8-7.7 18.3-19 10.5-11.2 11.5-11.4 1-0.3 3.5-3.6 2.5-3.2 3.5-3.4 1-0.3 3.5-3.6 2.5-3.2 4.5-4.4 2-1.3 2.8-3.6 0.7-2.2-28.8-31.2t-27-32 1.5-5-0.5-3 4.2-4.5q3.8-3.5 11-11.5 7.3-8 13.6-13.5 6.2-5.5 6.4-6.5 0.3-1 3.6-3.5 3.2-2.5 3.4-3.5 0.3-1 3.6-3.5 3.2-2.5 3.4-3.5 0.3-1 3.6-3.5 3.2-2.5 5-5 1.7-2.5 4-3.3 2.2-0.7 4.2 0.6 2 1.2 2.2 2.2 0.3 1 2.6 2.5 2.2 1.5 2.2 2.5t1 1 1 1 1 1 1.2 1q0.3 1 2 2 1.8 1 1.8 2t1 1 1.2 1q0.3 1 3 3 2.8 2 2.8 3t1 1 1.2 1q0.3 1 1.6 1.5 1.2 0.5 1.4 1.5 0.3 1 4 4 3.8 3 4 4 0.3 1 4 4 3.8 3 4 4 0.3 1 5.6 5.5 5.2 4.5 7.7 7.7l2.5 3.3h2l2.5-3.3q2.5-3.2 13.7-13.7 11.3-10.5 12.8-12.5t-7.5-19-14-33.5-7.5-31-2.5-38.5 2.5-38.5 5.5-26.5 9-27.5 14.3-29.7q8.2-14.3 10.2-18 2-3.8 4.2-5.8 2.3-2 6-7.5 3.8-5.5 4.8-5.5t10.5-10.2q9.5-10.3 16.3-15.6 6.7-5.2 7-6.2 0.2-1 4.7-3.8 4.5-2.7 18-10.7t31.5-15 33.5-10.5 27-4.5 29-0.5 22.5 1 26 5.5 37.8 12.7q16.7 7.8 23 11.6 6.2 3.7 6.7 4l0.5 0.2h0.2q0.3 0 0.6 0.5l0.2 0.5 3.8 2.5q3.7 2.5 16 12.3 12.2 9.7 16 13.4 3.7 3.8 4 4.3l0.2 0.5h1v-0.5l18 1q18 1 31.5 4t27.5 8 24 10 17 9 9.2 2.7q2.3-1.2 41.3-40.2t39.3-39.2l0.2-0.3 0.2-0.3 0.3-0.2 0.3-0.2 0.2-0.3 0.2-0.3 0.3-0.2 0.3-0.2 0.2-0.3 0.2-0.3 0.3-0.2 0.3-0.2 0.2-0.3 0.2-0.3 0.3-0.2 0.3-0.2 0.2-0.3 0.2-0.3 0.3-0.2 0.3-1 0.2-1h-102v-5.5q0-3.5-3-3.5t-3-45z" fill="#fff" stroke="#fff"/>
  <g fill="#fefefe" stroke="#fefefe">
   <path d="m686.8 377.5l-0.8-7.5 11.8 6q11.7 6 20.2 13.5t14.5 14 9.5 11 9 16.5 6.5 15 1.5 6.5l0.5 3.5h0.5l0.2 1.5q0.3 1.5 1.3 6.5t1.5 18.5-2.5 29.5-8.5 28.5-14.2 25.5q-8.8 13-10.8 14.2-2 1.3-11.2 9.6-9.3 8.2-23 16-13.8 7.7-28.3 11.7t-32 4.5-28-1l-10.5-1.5-1.5-0.5-1.5-0.5-1.5-0.5-1.5-0.5-0.2-0.3-0.3-0.2h-0.5l0.2-0.5 0.3-0.5 0.3-0.2 0.2-0.3 1-0.5 1-0.5 1-0.5 1-0.5 0.2-0.3 0.3-0.2 0.3-0.2q0.2-0.3 6.2-4.8t19-17 23.8-26.8q10.7-14.2 20.2-33.2t13.5-31 8.5-33 5-43.5-0.5-30.5-1.7-15.5z"/>
   <path d="m500 297.8v0.2l-14.8 12q-14.7 12-15 13-0.2 1-4 4.5-3.7 3.5-10.7 11t-17 22-18.5 34.5-13 37.5-5.5 28-0.5 33.5 2 30.5 2 10.5l0.5 3h0.5v0.5l0.2 0.3 0.3 0.2 0.3 1.5 0.2 1.5-1-0.2-1-0.3-1-0.5-1-0.5-1-0.5-1-0.5-1-0.5q-1-0.5-12-7.5t-17.5-13.5-13.5-14.2l-7-7.8-0.2-0.5q-0.3-0.5-1-2.5-0.8-2-1.8-2t-6.8-12.5q-5.7-12.5-9.2-26.5t-4-30.5 1.5-25.5 5.5-18 9.2-19l5.8-10v-0.5l0.2-0.3 0.3-0.2 0.3-0.2 0.2-0.3 0.2-0.3 0.3-0.2 0.3-0.2 0.2-0.3 0.2-0.3 0.3-0.2 0.3-0.2 0.2-0.3 0.2-0.3 0.3-0.2 0.5-1 0.5-1 0.3-0.2 0.2-0.3 11-11q11-11 19-16t17-9.5 21-8 17.5-4.5 23.5-0.5 27.5 2.5 9.5 2.3z"/>
   <path d="m570.5 375.2l12.5-6.2 4.8 12q4.7 12 6.2 21.5t2 14l0.5 4.5 0.3 2 0.2 2-2.2 18q-2.3 18-7.6 29.2-5.2 11.3-12.2 21.8t-15 19.2q-8 8.8-9 8.8t-1 1-14 9.2q-14 8.3-19.5 10.8t-8 2.8l-2.5 0.2-0.2-0.5-0.3-0.5-0.5-1q-0.5-1-1.5-5l-1-4h-0.5l-0.2-1.5-0.3-1.5-0.5-1.5-0.5-1.5-0.5-2q-0.5-2-1-4t-1-23.5 3-36.5 12.2-31.5q8.8-16.5 9.8-16.5t1.2-1q0.3-1 7.3-9t16.7-15.8q9.8-7.7 22.3-14z"/>
  </g>
  <path d="m584.5 226.8l0.5 0.2v0.2q0 0.3 0.5 0.6l0.5 0.2v1.2q0 1.3 2 3.3t1.2 2.7q-0.7 0.8 0.6 2.6 1.2 1.7 0.4 2.4-0.7 0.8-0.7 5.8t-3 14-4.5 22.5-3.2 21q-1.8 7.5-2.8 7.5t-1.8 5.5q-0.7 5.5-0.4 7.7 0.2 2.3 1.2 2.6 1 0.2 1.2 1.2l0.3 1 0.3 1 0.2 1h-1q-1 0-1-1t-2-0.5l-2 0.5 0.2 1.5 0.3 1.5 0.3 0.2 0.2 0.3 0.2 0.3 0.3 0.2v3l-0.3-0.2-0.2-0.3-0.2-0.3-0.3-0.2-0.5-1-0.5-1-0.5-1-0.5-1-0.3-0.2-0.2-0.3-0.2-0.3-0.3-0.2-0.3-0.2-0.2-0.3-0.2-0.3q-0.3-0.2-3.6-3.4-3.2-3.3-12.2-11.3t-22-15.5-28-12-38.5-4.5-37.5 4-26 10.5-22 14.5-18.2 17.7l-8.3 9.8-0.3 0.2-0.2 0.3-0.2 0.3-0.3 0.2-0.5 2q-0.5 2-1 3l-0.5 1v2h0.5l-5.8 10q-5.7 10-9.2 19t-5.5 18-1.5 25.5 4 30.5 9.2 26.5q5.8 12.5 6.8 12.5t1.8 2q0.7 2 1 2.5l0.2 0.5-0.5 1.2q-0.5 1.3-1.5 1.6-1 0.2-2 2.7t-4.5 5.7q-3.5 3.3-4 3.6l-0.5 0.2h-0.2q-0.3 0-0.6 1l-0.2 1-12.2 13q-12.3 13-26.3 32t-28 41-24 41-20.5 45-12 31.5-2 7l-0.5 1.5-0.5 2-0.5 2v5l0.3-0.2 0.2-0.3 0.2-0.3 0.3-0.2 0.3-0.2 0.2-0.3 1-0.5 1-0.5 0.2-0.3 0.3-0.2 0.3-0.2 0.2-0.3 0.2-0.3 0.3-0.2 0.3-0.2 0.2-0.3 0.2-0.3 0.3-0.2 0.3-0.2 0.2-0.3 9.5-9q9.5-9 12.5-7.5t32 31 31.2 28.8q2.3-0.8 10-9.3 7.8-8.5 18-18 10.3-9.5 10.6-10.5l0.2-1 1-0.2 1-0.3 1.5-0.5 1.5-0.5 0.2-0.3 0.3-0.2 0.3-0.2 0.2-0.3 1-0.3 1-0.2-0.2 1-0.3 1-0.3 0.2-0.2 0.3-0.2 0.3-0.3 0.2-0.3 0.2-0.2 0.3-1 0.3-1 0.2v3.5l-22.5 22.5q-22.5 22.5-23.5 22.8l-1 0.2-0.2-1q-0.3-1-31.6-31.8l-31.2-30.7-0.2-0.3-0.3-0.2-0.3 0.2-0.2 0.3-31.2 31.3q-31.3 31.2-31.6 31.4l-0.2 0.3h-1l-0.2-0.3q-0.3-0.2-31.3-31.2t-30.3-32.8q0.8-1.7 2.3-4.4 1.5-2.8 0.5-3-1-0.3-1.2-1.6-0.3-1.2 7.4-9 7.8-7.7 18.3-19 10.5-11.2 11.5-11.4 1-0.3 3.5-3.6 2.5-3.2 3.5-3.4 1-0.3 3.5-3.6 2.5-3.2 4.5-4.4 2-1.3 2.8-3.6 0.7-2.2-28.8-31.2t-27-32 1.5-5-0.5-3 4.2-4.5q3.8-3.5 11-11.5 7.3-8 13.6-13.5 6.2-5.5 6.4-6.5 0.3-1 3.6-3.5 3.2-2.5 3.4-3.5 0.3-1 3.6-3.5 3.2-2.5 3.4-3.5 0.3-1 3.6-3.5 3.2-2.5 5-5 1.7-2.5 4-3.3 2.2-0.7 4.2 0.6 2 1.2 2.2 2.2 0.3 1 2.6 2.5 2.2 1.5 2.2 2.5t1 1 1 1 1 1 1.2 1q0.3 1 2 2 1.8 1 1.8 2t1 1 1.2 1q0.3 1 3 3 2.8 2 2.8 3t1 1 1.2 1q0.3 1 1.6 1.5 1.2 0.5 1.4 1.5 0.3 1 4 4 3.8 3 4 4 0.3 1 4 4 3.8 3 4 4 0.3 1 5.6 5.5 5.2 4.5 7.7 7.7l2.5 3.3h2l2.5-3.3q2.5-3.2 13.7-13.7 11.3-10.5 12.8-12.5t-7.5-19-14-33.5-7.5-31-2.5-38.5 2.5-38.5 5.5-26.5 9-27.5 14.3-29.7q8.2-14.3 10.2-18 2-3.8 4.2-5.8 2.3-2 6-7.5 3.8-5.5 4.8-5.5t10.5-10.2q9.5-10.3 16.3-15.6 6.7-5.2 7-6.2 0.2-1 4.7-3.8 4.5-2.7 18-10.7t31.5-15 33.5-10.5 27-4.5 29-0.5 22.5 1 26 5.5 37.8 12.7q16.7 7.8 23 11.6 6.2 3.7 6.7 4z" fill="#da3176" stroke="#da3176"/>
  <path d="m837.5 397.8l0.5 0.2v0.2q0 0.3 0.5 0.6l0.5 0.2 0.2 1q0.3 1 2.8 7t6.5 18 7 28.5 3.5 37-2.5 40-8.5 36-12.5 30.5-14.5 25.5-20.2 25.3q-12.8 13.7-16.3 17.4-3.5 3.8-14.3 11.3-10.7 7.5-24 15.3-13.2 7.7-31.2 14.7t-37.5 11-40 4.5-39.5-2.5-35.5-8.5-29-11.5-26-15-25.5-19.3l-12-10.2-0.2-0.5-0.3-0.5-0.5-1-0.5-1-0.3-0.2-0.2-0.3-0.2-0.3-0.3-0.2-0.3-0.2-0.2-0.3-0.2-0.3-0.3-0.2-0.3-0.2-0.2-0.3-0.2-0.3-0.3-0.2-0.3-0.2-0.2-0.3-0.2-0.3-0.3-0.2-0.3-0.2-0.2-0.3-0.2-0.3-0.3-0.2-0.3-0.2-0.2-0.3-0.2-0.3q-0.3-0.2-0.6-0.7l-0.2-0.5-0.2-0.5-0.3-0.5-0.3-0.2-0.2-0.3-0.2-0.3-0.3-0.2-0.3-0.2-0.2-0.3-0.2-0.3-0.3-0.2-0.3-0.2-0.2-0.3-0.2-0.3-0.3-0.2-0.3-0.2-0.2-0.3-0.2-0.3-0.3-0.2-0.3-0.2-0.2-0.3-0.2-0.3q-0.3-0.2-1.8-2.2t-12-17.5-18.5-31.5-12.7-31l-4.8-15-0.2-1.5-0.3-1.5-0.3-0.2-0.2-0.3v-4.5l2 0.2 2 0.3 16 2q16 2 44.5 2h28.5l0.2-0.3 0.3-0.2 0.3-1.5 0.2-1.5h0.5l0.3 0.2 0.2 0.3h1v-0.5h0.5l1 4q1 4 1.5 5l0.5 1 0.3 0.5 0.2 0.5 0.2 1 0.3 1 6.3 11.2q6.2 11.3 17.7 22.8t22 18.5 20.5 11 11.5 4.5 2 0.8l0.5 0.2h0.5l0.3 0.2 0.2 0.3 1.5 0.5 1.5 0.5 1.5 0.5 1.5 0.5 10.5 1.5q10.5 1.5 28 1t32-4.5 28.3-11.7q13.7-7.8 23-16 9.2-8.3 11.2-9.6 2-1.2 10.8-14.2 8.7-13 14.2-25.5t8.5-28.5 2.5-29.5-1.5-18.5-1.3-6.5l-0.2-1.5 0.2-1 0.3-1 0.3-0.2 0.2-0.3 0.2-0.3 0.3-0.2 0.3-0.2 0.2-0.3 0.2-0.3 0.3-0.2 26-17q26-17 37-25.5t11.3-10.3q0.2-1.7 0.7-1.4z" fill="#2d6efd" stroke="#2d6efd"/>
  <path d="m1008 118.2v-0.2h1.5q1.5 0 1.5 136.5v136.5h-45.5q-45.5 0-45.5-4.5t-2.5-4.5-2.5-27v-27h0.5l0.3-0.2 0.2-0.3 0.2-0.3 0.3-0.2 0.3-0.2 0.2-0.3 0.2-0.3 0.3-0.2 0.3-0.2 0.2-0.3 0.2-0.3 0.3-0.2 0.3-0.2 0.2-0.3 0.2-0.3 0.3-0.2 0.3-0.2 0.2-0.3 0.2-0.3 0.3-0.2 0.3-0.2 0.2-0.3 3-4.3q3-4.2 6.2-7.2 3.3-3 16.8-21t24-34.5 19.5-32.5 12-23 3.3-44q0.2-37 1.2-37.2 1-0.3 1-0.6z" fill="#3884fb" stroke="#3884fb"/>
  <path d="m732 155v-45l136.8 0.5q136.7 0.5 137 4 0.2 3.5 1.2 3.5h1v0.2q0 0.3-1 0.6-1 0.2-1.2 37.2-0.3 37-3.3 44t-12 23-19.5 32.5-24 34.5-16.8 21q-3.2 3-6.2 7.2l-3 4.3-0.2 0.3-0.3 0.2-0.3 0.2-0.2 0.3-0.2 0.3-0.3 0.2-0.3 0.2-0.2 0.3-0.2 0.3-0.3 0.2-0.3 0.2-0.2 0.3-0.2 0.3-0.3 0.2-0.3 0.2-0.2 0.3-0.2 0.3-0.3 0.2-0.3 0.2-0.2 0.3-0.2 0.3-0.3 0.2h-0.5v-47l-1.5 0.2-1.5 0.3-0.2 0.3-0.3 0.2-0.3 0.2-0.2 0.3-0.2 0.3-0.3 0.2-0.3 0.2-0.2 0.3-0.2 0.3-0.3 0.2-0.3 0.2-0.2 0.3-0.2 0.3-0.3 0.2-0.3 0.2-0.2 0.3-0.2 0.3q-0.3 0.2-42.3 42.7t-41.3 43.7q0.8 1.3 7.8 14l7 12.8-0.5 0.2q-0.5 0.3-12.3 9.6-11.7 9.2-37.7 26.2l-26 17-0.3 0.2-0.2 0.3-0.2 0.3-0.3 0.2-0.3 0.2-0.2 0.3-0.2 0.3-0.3 0.2-0.3 1-0.2 1h-0.5l-0.5-3.5q-0.5-3.5-1.5-6.5t-6.5-15-9-16.5-9.5-11-14.5-14-20.2-13.5l-11.8-6-0.2-0.5q-0.3-0.5-3.3-10t-10.5-27.5-16.8-33.2q-9.2-15.3-11.7-19-2.5-3.8-3.5-3.8t-4.8-5l-3.7-5-0.3-0.2-0.2-0.3-0.2-0.3-0.3-0.2-0.3-0.2-0.2-0.3-0.2-0.3-0.3-0.2-0.3-0.2-0.2-0.3-0.2-0.3-0.3-0.2-0.3-0.2-0.2-0.3-0.2-0.3-0.3-0.2-0.3-0.2-0.2-0.3v-1l18 1q18 1 31.5 4t27.5 8 24 10 17 9 9.2 2.7q2.3-1.2 41.3-40.2t39.3-39.2l0.2-0.3 0.2-0.3 0.3-0.2 0.3-0.2 0.2-0.3 0.2-0.3 0.3-0.2 0.3-0.2 0.2-0.3 0.2-0.3 0.3-0.2 0.3-0.2 0.2-0.3 0.2-0.3 0.3-0.2 0.3-0.2 0.2-0.3 0.2-0.3 0.3-0.2 0.3-1 0.2-1 1.5-0.8q1.5-0.7 1.7-1l0.3-0.2 0.3-0.2 0.2-0.3 0.2-0.3 0.3-0.2 0.3-0.2 0.2-0.3 0.2-0.3 0.3-0.2 0.3-0.2 0.2-0.3 0.2-0.3 0.3-0.2 0.3-0.2 0.2-0.3 0.2-0.3 0.3-0.2 0.3-0.2 0.2-0.3 0.2-0.3 0.3-0.2v-1l-0.3-0.2-0.2-0.3h-108l-0.2 0.3q-0.3 0.2-0.8 3.2l-0.5 3h-0.5v-3.5q0-3.5-3-3.5t-3-45zm104.2 242.8q-0.2-0.3 0-0.6 0.3-0.2 0.3 0.3t-0.3 0.3z" fill="#59adfd" stroke="#59adfd"/>
  <path d="m628.2 266l-2.2-5h1v0.5l0.2 0.3 0.3 0.2 0.3 0.2 0.2 0.3 0.2 0.3 0.3 0.2 0.3 0.2 0.2 0.3 0.2 0.3 0.3 0.2 0.3 0.2 0.2 0.3 0.2 0.3 0.3 0.2 0.3 0.2 0.2 0.3 0.2 0.3 0.3 0.2 3.7 5q3.8 5 4.8 5t3.5 3.8q2.5 3.7 11.7 19 9.3 15.2 16.8 33.2t10.5 27.5 3.3 10l0.2 0.5 0.8 7.5q0.7 7.5 1.7 15.5t0.5 30.5-5 43.5-8.5 33-13.5 31-20.2 33.2q-10.8 14.3-23.8 26.8t-19 17-6.2 4.8l-0.3 0.2-0.3 0.2-0.2 0.3-1 0.5-1 0.5-1 0.5-1 0.5-0.2 0.3-0.3 0.2-0.3 0.5-0.2 0.5-0.5-0.2q-0.5-0.3-2-0.8t-11.5-4.5-20.5-11-22-18.5-17.7-22.8l-6.3-11.2-0.3-1-0.2-1 2.5-0.2q2.5-0.3 8-2.8t19.5-10.8q14-8.2 14-9.2t1-1 9-8.8q8-8.7 15-19.2t12.2-21.8q5.3-11.2 7.6-29.2l2.2-18h2l-0.2-7q-0.3-7-2.8-22.5t-6-25.5-3.2-11.5q0.2-1.5 8.7-5.3l8.5-3.7 1.5-0.3 1.5-0.2-0.2-1q-0.3-1-0.6-0.8-0.2 0.3-2.2-0.2l-2-0.5 1-0.5 1-0.5 2-0.5q2-0.5 3.5-1.2 1.5-0.8 8.7-34.8l7.3-34 1.5 0.5q1.5 0.5 1-0.5t0-1.5 1.2 0.3q0.8 0.7 1.8 0.2l1-0.5-0.2-0.3-0.3-0.2-0.5-1q-0.5-1-2.8-6z" fill="#fd569d" stroke="#fd569d"/>
  <path d="m586.5 229.8l-1.5-2.8 12.8 9.5q12.7 9.5 20.2 16.5t7.8 7.5l0.2 0.5 1 3.5q1 3.5 2.5 3.5t1.3 1.5q-0.3 1.5 0.2 2.5l0.5 1 0.3 0.2 0.2 0.3-1.2 0.7q-1.3 0.8-2 0-0.8-0.7-0.8 0.3t0.8 1.7q0.7 0.8 1 1.8l0.2 1h-1q-1 0-2.2-2l-1.3-2-7.3 34q-7.2 34-8.7 34.8-1.5 0.7-3.5 1.2l-2 0.5-1 0.5-1 0.5 2 0.5q2 0.5 2.2 0.2 0.3-0.2 0.6 0.8l0.2 1-1.5 0.2-1.5 0.3-8.5 3.7q-8.5 3.8-8.7 5.3-0.3 1.5 3.2 11.5t6 25.5 2.8 22.5l0.2 7h-2l-0.2-2-0.3-2-0.5-4.5q-0.5-4.5-2-14t-6.2-21.5l-4.8-12-0.2-0.5q-0.3-0.5-3-5.5l-2.8-5-0.2-0.5-0.3-0.5-0.3-0.2-0.2-0.3-0.2-0.3q-0.3-0.2-1.8-2.7t-11.8-15q-10.2-12.5-13.7-14.7-3.5-2.3-13.5-8.8t-22.5-11.8l-12.5-5.2v-0.2q0-0.3-9.5-2.3t-27.5-2.5-23.5 0.5-17.5 4.5-21 8-17 9.5-19 16l-11 11-0.2 0.3-0.3 0.2-0.5 1-0.5 1-0.3 0.2-0.2 0.3-0.2 0.3-0.3 0.2-0.3 0.2-0.2 0.3-0.2 0.3-0.3 0.2-0.3 0.2-0.2 0.3-0.2 0.3-0.3 0.2-0.3 0.2-0.2 0.3v0.5h-0.5v-5l0.3-0.2 0.2-0.3 0.2-0.3 0.3-0.2 0.5-1 0.5-1 0.3-0.2 0.2-0.3 0.2-0.3 0.3-0.2 8.3-9.8q8.2-9.7 18.2-17.7t22-14.5 26-10.5 37.5-4 38.5 4.5 28 12 22 15.5 12.2 11.3q3.3 3.2 3.6 3.4l0.2 0.3 0.2 0.3 0.3 0.2 0.3 0.2 0.2 0.3 0.2 0.3 0.3 0.2 0.3 1 0.2 1 1-0.2 1-0.3-0.2-0.3-0.3-0.2-0.3-2.5-0.2-2.5 1 0.2 1 0.3 0.2 0.3 0.3 0.2 0.5-1.5q0.5-1.5 0-3.5t0.2-7.5q0.8-5.5 1.8-5.5t2.8-7.5q1.7-7.5 3.2-21t4.5-22.5 3-14 0.7-5.8q0.8-0.7-0.4-2.4-1.3-1.8-0.6-2.6 0.8-0.7-0.2-1.7t-2.5-3.7zm-11.5 100.2q0-1 1-1t1 1v1h-1q-1 0-1-1zm-2.8 6.8l-0.2-0.3 0.2-0.3q0.3-0.2 0.3 0.3v0.5l-0.3-0.2z" fill="#f23c8e" stroke="#f23c8e"/>
  <path d="m320.2 530l16.8-19-1.5 5.2q-1.5 5.3-0.3 47 1.3 41.8 1.8 42.8t0.8 1.5l0.2 0.5-11.2 10.5q-11.3 10.5-16 15.3-4.8 4.7-5 5l-0.3 0.2-0.3 0.2-0.2 0.3-0.2 0.3-0.3 0.2-0.3 0.2-0.2 0.3-0.2 0.3-0.3 0.2-0.3 0.2-0.2 0.3-0.2 0.3-0.3 0.2-0.3 0.2-0.2 0.3-0.2 0.3-0.3 0.2v2l0.5 1 0.5 1 0.3 0.2 0.2 0.3 1 0.3 1 0.2 3 3.8q3 3.7 4 4 1 0.2 5 5 4 4.7 5 5 1 0.2 4 4 3 3.7 4 4 1 0.2 5.5 5.4 4.5 5.3 5.5 5.6 1 0.2 1 1.2t1 1 2 1.8q1 1.7 2 2 1 0.2 1 1.2t1 1 1 1 1 1 1.5 1.2q0.5 1.3 1.5 1.6 1 0.2 1.5 1.4 0.5 1.3 1.5 1.6 1 0.2 2 2 1 1.7 2 2 1 0.2 1 1.2t1.2 2q1.3 1-1.2 3.5t-2.8 4q-0.2 1.5 1 2 1.3 0.5 0 2.7-1.2 2.3-8.2 9.3t-7.5 7.3l-0.5 0.2v-2.5q0-2.5-1-2.5t-1 1.5-1.5 1.5-1.7 1q-0.3 1-10 9.5-9.8 8.5-17.6 17-7.7 8.5-10 9.3-2.2 0.7-31.2-28.8t-32-31-12.5 7.5l-9.5 9-0.2 0.3-0.3 0.2-0.3 0.2-0.2 0.3-0.2 0.3-0.3 0.2-0.3 0.2-0.2 0.3-0.2 0.3-0.3 0.2-0.3 0.2-0.2 0.3-1 0.5-1 0.5-0.2 0.3-0.3 0.2-0.3 0.2-0.2 0.3-0.2 0.3-0.3 0.2v-5l0.5-2 0.5-2 0.5-1.5q0.5-1.5 6-18t19-45.5 26-49.5 27-41 31.2-39.5zm26.8 200h1v1q0 1-1 1t-1-1 1-1z" fill="#fd3589" stroke="#fd3589"/>
  <path d="m485.2 310l14.8-12 12.5 5.2q12.5 5.3 22.5 11.8t13.5 8.8q3.5 2.2 13.7 14.7 10.3 12.5 11.8 15t1.8 2.7l0.2 0.3 0.2 0.3 0.3 0.2 0.3 0.5 0.2 0.5v2l-1 0.2-1 0.3-9.8 5.3q-9.7 5.2-18.2 11.2t-8.8 7q-0.2 1-7 7-6.7 6-13.7 15.5t-13 22-9.5 27.5-3 33.5 2.5 26.5 2.5 10l0.5 2 0.5 2 0.5 2 0.5 1 0.5 1 0.3 0.5 0.2 0.5-0.2 1.5-0.3 1.5-0.3 0.2-0.2 0.3h-28.5q-28.5 0-44.5-2l-16-2-2-0.3-2-0.2v4h-0.5l-0.5-3q-0.5-3-2-10.5t-2-30.5 0.5-33.5 5.5-28 13-37.5 18.5-34.5 17-22 10.7-11q3.8-3.5 4-4.5 0.3-1 15-13z" fill="#5eb3fd" stroke="#5eb3fd"/>
  <path d="m739.8 200.8l0.2-0.3h108l0.2 0.3 0.3 0.2v1l-0.3 0.2-0.2 0.3-0.2 0.3-0.3 0.2-0.3 0.2-0.2 0.3-0.2 0.3-0.3 0.2-0.3 0.2-0.2 0.3-0.2 0.3-0.3 0.2-0.3 0.2-0.2 0.3-0.2 0.3-0.3 0.2-0.3 0.2-0.2 0.3-0.2 0.3-0.3 0.2-0.3 0.2q-0.2 0.3-1.7 1l-1.5 0.8h-102v-2h0.5l0.5-3q0.5-3 0.8-3.2z" fill="#2166ce" stroke="#2166ce"/>
  <path d="m326.8 618.5l11.2-10.5 15.5 8.8q15.5 8.7 31 14.2t29.5 8.5 21 4 17 1.3l10 0.2 0.2 0.5q0.3 0.5 0.6 0.7l0.2 0.3 0.2 0.3 0.3 0.2 0.3 0.2 0.2 0.3 0.2 0.3 0.3 0.2 0.3 0.2 0.2 0.3 0.2 0.3 0.3 0.2 0.3 0.2 0.2 0.3 0.2 0.3 0.3 0.2 0.3 0.2 0.2 0.3 0.2 0.3 0.3 0.2 0.3 0.2 0.2 0.3 0.2 0.3 0.3 0.2 0.5 1 0.5 1 0.3 0.5 0.2 0.5-3 0.2-3 0.3h-1l-0.2-0.3-0.3-0.2-0.3 0.2q-0.2 0.3-13.7-0.2t-26.5-3-29.5-7.5-31.3-12.3q-14.7-7.2-21-10.4-6.2-3.3-18.4 9l-12.3 12.2-0.3 0.2-0.2 0.3-0.2 0.3-0.3 0.2-0.3 0.2-0.2 0.3-0.2 0.3-0.3 0.2-0.3 0.2-0.2 0.3-0.2 0.3-0.3 0.2-0.3 0.2-0.2 0.3-0.2 0.3-0.3 0.2-0.3 0.5-0.2 0.5-1-0.2-1-0.3-0.2-0.3-0.3-0.2-0.5-1-0.5-1v-2l0.3-0.2 0.2-0.3 0.2-0.3 0.3-0.2 0.3-0.2 0.2-0.3 0.2-0.3 0.3-0.2 0.3-0.2 0.2-0.3 0.2-0.3 0.3-0.2 0.3-0.2 0.2-0.3 0.2-0.3 0.3-0.2 0.3-0.2q0.2-0.3 5-5 4.7-4.8 16-15.3z" fill="#bf4b78" stroke="#bf4b78"/>
  <path d="m577 359v-1l2.8 5q2.7 5 3 5.5l0.2 0.5-12.5 6.2q-12.5 6.3-22.3 14-9.7 7.8-16.7 15.8t-7.3 9q-0.2 1-1.2 1t-9.8 16.5q-8.7 16.5-12.2 31.5t-3 36.5 1 23.5 1 4l0.5 2 0.5 1.5 0.5 1.5 0.3 1.5 0.2 1.5v0.5h-1l-0.2-0.3-0.3-0.2h-0.5l-0.2-0.5-0.3-0.5-0.5-1-0.5-1-0.5-2-0.5-2-0.5-2q-0.5-2-2.5-10t-2.5-26.5 3-33.5 9.5-27.5 13-22 13.7-15.5q6.8-6 7-7 0.3-1 8.8-7t18.2-11.2l9.8-5.3 1-0.3 1-0.2v-1z" fill="#2266cd" stroke="#2266cd"/>
  <path d="m349.5 497.2l0.5-1.2 7 7.8q7 7.7 13.5 14.2t17.5 13.5 12 7.5l1 0.5 1 0.5 1 0.5 1 0.5 1 0.5 1 0.3 1 0.2 4.8 15q4.7 15 12.7 31t18.5 31.5 12 17.5 1.8 2.2l0.2 0.3 0.2 0.3 0.3 0.2 0.3 0.2 0.2 0.3 0.2 0.3 0.3 0.2 0.3 0.2 0.2 0.3 0.2 0.3 0.3 0.2 0.3 0.2 0.2 0.3 0.2 0.3 0.3 0.2 0.3 0.2 0.2 0.3 0.2 0.3 0.3 0.2 0.3 0.5 0.2 0.5-10-0.2q-10-0.3-17-1.3t-21-4-29.5-8.5-31-14.2l-15.5-8.8-0.2-0.5q-0.3-0.5-0.8-1.5t-1.8-42.8q-1.2-41.7-0.2-46l1-4.2h0.2q0.3 0 0.6-1l0.2-1 0.5-0.2q0.5-0.3 4-3.6 3.5-3.2 4.5-5.7t2-2.7q1-0.3 1.5-1.6z" fill="#fd569c" stroke="#fd569c"/>
 </g>
</svg>
